<svg width="201" height="200" viewBox="0 0 201 200" fill="none" xmlns="http://www.w3.org/2000/svg">
<rect x="11.57" y="-3.15335" width="38" height="183" rx="19" transform="matrix(0.494206 -0.869345 0.866969 0.498362 8.58589 82.7148)" fill="black" stroke="#5A3DFF" stroke-width="17"/>
<rect x="3.16848" y="-11.6255" width="38" height="92.3161" rx="19" transform="matrix(-0.494207 -0.869345 0.866969 -0.498362 42.1576 158.822)" fill="black" stroke="#FFBD06" stroke-width="17"/>
<mask id="path-3-inside-1_389_233" fill="white">
<path d="M99.5 0C114.688 0 127.004 12.3122 127.009 27.5L127.017 52.752L149.715 39.7051C162.882 32.136 179.642 36.7038 187.147 49.9072C194.653 63.1106 190.064 79.9495 176.896 87.5186L129.826 114.576C128.913 115.101 127.981 115.566 127.037 115.976L127.056 172.5C127.061 187.688 114.752 200 99.5645 200C84.3768 200 72.0606 187.688 72.0557 172.5L72.0088 27.5C72.0039 12.3122 84.3122 5.07889e-07 99.5 0Z"/>
</mask>
<path d="M99.5 0C114.688 0 127.004 12.3122 127.009 27.5L127.017 52.752L149.715 39.7051C162.882 32.136 179.642 36.7038 187.147 49.9072C194.653 63.1106 190.064 79.9495 176.896 87.5186L129.826 114.576C128.913 115.101 127.981 115.566 127.037 115.976L127.056 172.5C127.061 187.688 114.752 200 99.5645 200C84.3768 200 72.0606 187.688 72.0557 172.5L72.0088 27.5C72.0039 12.3122 84.3122 5.07889e-07 99.5 0Z" fill="black"/>
<path d="M99.5 0V-17V0ZM127.009 27.5L144.009 27.4947V27.4945L127.009 27.5ZM127.017 52.752L110.017 52.7572L110.026 82.1265L135.488 67.4907L127.017 52.752ZM149.715 39.7051L158.187 54.4438L158.187 54.4436L149.715 39.7051ZM187.147 49.9072L201.926 41.5059L201.926 41.5057L187.147 49.9072ZM176.896 87.5186L185.369 102.257L185.369 102.257L176.896 87.5186ZM129.826 114.576L138.298 129.315L138.298 129.315L129.826 114.576ZM127.037 115.976L120.271 100.38L110.033 104.821L110.037 115.981L127.037 115.976ZM127.056 172.5L144.056 172.494V172.494L127.056 172.5ZM99.5645 200L99.5642 217H99.5645V200ZM72.0557 172.5L55.0557 172.505V172.506L72.0557 172.5ZM72.0088 27.5L89.0088 27.4945V27.4945L72.0088 27.5ZM99.5 0V17C105.301 17 110.007 21.7043 110.009 27.5055L127.009 27.5L144.009 27.4945C144.001 2.92007 124.075 -17 99.5 -17V0ZM127.009 27.5L110.009 27.5053L110.017 52.7572L127.017 52.752L144.017 52.7467L144.009 27.4947L127.009 27.5ZM127.017 52.752L135.488 67.4907L158.187 54.4438L149.715 39.7051L141.243 24.9664L118.545 38.0133L127.017 52.752ZM149.715 39.7051L158.187 54.4436C163.187 51.5694 169.518 53.295 172.369 58.3087L187.147 49.9072L201.926 41.5057C189.765 20.1125 162.578 12.7027 141.243 24.9666L149.715 39.7051ZM187.147 49.9072L172.369 58.3086C175.25 63.3775 173.479 69.8743 168.424 72.7801L176.896 87.5186L185.369 102.257C206.648 90.0248 214.056 62.8438 201.926 41.5059L187.147 49.9072ZM176.896 87.5186L168.424 72.7801L121.354 99.8377L129.826 114.576L138.298 129.315L185.369 102.257L176.896 87.5186ZM129.826 114.576L121.354 99.8377C121.013 100.034 120.653 100.215 120.271 100.38L127.037 115.976L133.803 131.571C135.309 130.918 136.812 130.169 138.298 129.315L129.826 114.576ZM127.037 115.976L110.037 115.981L110.056 172.506L127.056 172.5L144.056 172.494L144.037 115.97L127.037 115.976ZM127.056 172.5L110.056 172.506C110.058 178.302 105.361 183 99.5645 183V200V217C124.143 217 144.064 197.073 144.056 172.494L127.056 172.5ZM99.5645 200L99.5647 183C93.7634 183 89.0575 178.295 89.0557 172.494L72.0557 172.5L55.0557 172.506C55.0636 197.08 74.9902 217 99.5642 217L99.5645 200ZM72.0557 172.5L89.0557 172.495L89.0088 27.4945L72.0088 27.5L55.0088 27.5055L55.0557 172.505L72.0557 172.5ZM72.0088 27.5L89.0088 27.4945C89.0069 21.6978 93.7031 17 99.5 17V0V-17C74.9213 -17 55.0008 2.92659 55.0088 27.5055L72.0088 27.5Z" fill="#FF5B5D" mask="url(#path-3-inside-1_389_233)"/>
</svg>
