<svg width="1165" height="256" viewBox="0 0 1165 256" fill="none" xmlns="http://www.w3.org/2000/svg">
<rect x="11.57" y="-3.15335" width="38" height="183" rx="19" transform="matrix(0.494206 -0.869345 0.866969 0.498362 8.58589 110.715)" fill="#5A3DFF" stroke="white" stroke-width="17"/>
<rect x="3.16848" y="-11.6255" width="38" height="92.3161" rx="19" transform="matrix(-0.494207 -0.869345 0.866969 -0.498362 42.1576 186.822)" fill="#FFBD06" stroke="white" stroke-width="17"/>
<mask id="path-3-inside-1_494_209" fill="white">
<path d="M99.5 28C114.688 28 127.004 40.3122 127.009 55.5L127.017 80.752L149.715 67.7051C162.882 60.136 179.642 64.7038 187.147 77.9072C194.653 91.1106 190.064 107.95 176.896 115.519L129.826 142.576C128.913 143.101 127.981 143.566 127.037 143.976L127.056 200.5C127.061 215.688 114.752 228 99.5645 228C84.3768 228 72.0606 215.688 72.0557 200.5L72.0088 55.5C72.0039 40.3122 84.3122 28 99.5 28Z"/>
</mask>
<path d="M99.5 28C114.688 28 127.004 40.3122 127.009 55.5L127.017 80.752L149.715 67.7051C162.882 60.136 179.642 64.7038 187.147 77.9072C194.653 91.1106 190.064 107.95 176.896 115.519L129.826 142.576C128.913 143.101 127.981 143.566 127.037 143.976L127.056 200.5C127.061 215.688 114.752 228 99.5645 228C84.3768 228 72.0606 215.688 72.0557 200.5L72.0088 55.5C72.0039 40.3122 84.3122 28 99.5 28Z" fill="#FF5B5D"/>
<path d="M99.5 28L99.5 11L99.5 11L99.5 28ZM127.009 55.5L144.009 55.4947L144.009 55.4945L127.009 55.5ZM127.017 80.752L110.017 80.7572L110.026 110.127L135.488 95.4907L127.017 80.752ZM149.715 67.7051L158.187 82.4438L158.187 82.4436L149.715 67.7051ZM187.147 77.9072L201.926 69.5059L201.926 69.5057L187.147 77.9072ZM176.896 115.519L185.369 130.257L185.369 130.257L176.896 115.519ZM129.826 142.576L138.298 157.315L138.298 157.315L129.826 142.576ZM127.037 143.976L120.271 128.38L110.033 132.821L110.037 143.981L127.037 143.976ZM127.056 200.5L144.056 200.494L144.056 200.494L127.056 200.5ZM99.5645 228L99.5642 245H99.5645V228ZM72.0557 200.5L55.0557 200.505L55.0557 200.506L72.0557 200.5ZM72.0088 55.5L89.0088 55.4945L89.0088 55.4945L72.0088 55.5ZM99.5 28V45C105.301 45 110.007 49.7043 110.009 55.5055L127.009 55.5L144.009 55.4945C144.001 30.9201 124.075 11 99.5 11V28ZM127.009 55.5L110.009 55.5053L110.017 80.7572L127.017 80.752L144.017 80.7467L144.009 55.4947L127.009 55.5ZM127.017 80.752L135.488 95.4907L158.187 82.4438L149.715 67.7051L141.243 52.9664L118.545 66.0133L127.017 80.752ZM149.715 67.7051L158.187 82.4436C163.187 79.5694 169.518 81.295 172.369 86.3087L187.147 77.9072L201.926 69.5057C189.765 48.1125 162.578 40.7027 141.243 52.9666L149.715 67.7051ZM187.147 77.9072L172.369 86.3086C175.25 91.3775 173.479 97.8743 168.424 100.78L176.896 115.519L185.369 130.257C206.648 118.025 214.056 90.8438 201.926 69.5059L187.147 77.9072ZM176.896 115.519L168.424 100.78L121.354 127.838L129.826 142.576L138.298 157.315L185.369 130.257L176.896 115.519ZM129.826 142.576L121.354 127.838C121.013 128.034 120.653 128.215 120.271 128.38L127.037 143.976L133.803 159.571C135.309 158.918 136.812 158.169 138.298 157.315L129.826 142.576ZM127.037 143.976L110.037 143.981L110.056 200.506L127.056 200.5L144.056 200.494L144.037 143.97L127.037 143.976ZM127.056 200.5L110.056 200.506C110.058 206.302 105.361 211 99.5645 211V228V245C124.143 245 144.064 225.073 144.056 200.494L127.056 200.5ZM99.5645 228L99.5647 211C93.7634 211 89.0575 206.295 89.0557 200.494L72.0557 200.5L55.0557 200.506C55.0636 225.08 74.9902 245 99.5642 245L99.5645 228ZM72.0557 200.5L89.0557 200.495L89.0088 55.4945L72.0088 55.5L55.0088 55.5055L55.0557 200.505L72.0557 200.5ZM72.0088 55.5L89.0088 55.4945C89.0069 49.6978 93.7031 45 99.5 45L99.5 28L99.5 11C74.9213 11 55.0008 30.9266 55.0088 55.5055L72.0088 55.5Z" fill="white" mask="url(#path-3-inside-1_494_209)"/>
<path d="M259.8 172V60H284.12V172H259.8ZM337.983 174.4C330.836 174.4 324.489 173.12 318.943 170.56C313.503 168 309.236 164.373 306.143 159.68C303.156 154.987 301.663 149.6 301.663 143.52H324.383C324.489 146.08 325.129 148.267 326.303 150.08C327.583 151.787 329.289 153.067 331.423 153.92C333.556 154.667 336.009 155.04 338.783 155.04C341.023 155.04 343.049 154.72 344.863 154.08C346.676 153.44 348.169 152.48 349.343 151.2C350.516 149.813 351.103 148.213 351.103 146.4C351.103 143.733 349.716 141.76 346.943 140.48C344.169 139.2 340.009 138.08 334.463 137.12C330.943 136.587 328.009 136.053 325.663 135.52C323.423 134.987 320.703 134.08 317.503 132.8C314.409 131.413 311.903 129.867 309.983 128.16C308.169 126.453 306.569 124.107 305.183 121.12C303.796 118.133 303.103 114.667 303.103 110.72C303.103 102.613 306.303 96 312.703 90.88C319.103 85.76 327.476 83.2 337.823 83.2C348.276 83.2 356.649 85.8667 362.943 91.2C369.343 96.4267 372.543 103.36 372.543 112H350.303C350.303 105.173 345.983 101.76 337.343 101.76C333.716 101.76 330.889 102.507 328.863 104C326.836 105.493 325.823 107.52 325.823 110.08C325.823 111.147 326.089 112.16 326.623 113.12C327.263 113.973 327.956 114.667 328.703 115.2C329.556 115.733 330.836 116.267 332.543 116.8C334.249 117.227 335.689 117.547 336.863 117.76C338.036 117.973 339.796 118.293 342.143 118.72C344.169 119.147 345.609 119.467 346.463 119.68C347.316 119.787 348.756 120.053 350.783 120.48C352.809 120.907 354.303 121.333 355.263 121.76C356.329 122.08 357.716 122.56 359.423 123.2C361.236 123.84 362.569 124.533 363.423 125.28C364.383 125.92 365.503 126.72 366.783 127.68C368.169 128.64 369.236 129.707 369.983 130.88C370.729 132.053 371.476 133.333 372.223 134.72C372.969 136.107 373.449 137.707 373.663 139.52C373.983 141.333 374.143 143.253 374.143 145.28C374.143 154.133 370.836 161.227 364.223 166.56C357.609 171.787 348.863 174.4 337.983 174.4ZM438.525 83.2C451.538 83.2 462.312 87.52 470.845 96.16C479.485 104.8 483.805 115.68 483.805 128.8C483.805 141.92 479.485 152.853 470.845 161.6C462.205 170.24 451.432 174.56 438.525 174.56C429.672 174.56 421.725 172.16 414.685 167.36V203.2H391.325V85.6H406.845L410.845 93.44C418.525 86.6133 427.752 83.2 438.525 83.2ZM419.645 145.76C424.125 150.24 429.725 152.48 436.445 152.48C443.272 152.48 448.925 150.24 453.405 145.76C457.885 141.28 460.125 135.627 460.125 128.8C460.125 124.32 459.112 120.267 457.085 116.64C455.058 113.013 452.232 110.187 448.605 108.16C445.085 106.133 441.085 105.12 436.605 105.12C432.125 105.12 428.072 106.133 424.445 108.16C420.818 110.187 417.992 113.013 415.965 116.64C414.045 120.267 413.085 124.32 413.085 128.8C413.085 135.627 415.272 141.28 419.645 145.76ZM584.228 128.48C584.228 130.72 584.068 133.013 583.748 135.36H518.468C519.428 141.227 521.721 145.76 525.348 148.96C529.081 152.053 533.828 153.6 539.588 153.6C543.534 153.6 547.108 152.747 550.308 151.04C553.508 149.227 556.014 146.773 557.828 143.68H582.468C579.268 153.067 573.828 160.533 566.148 166.08C558.468 171.627 549.614 174.4 539.588 174.4C526.788 174.4 516.121 170.027 507.588 161.28C499.054 152.533 494.788 141.707 494.788 128.8C494.788 123.68 495.481 118.773 496.868 114.08C498.361 109.387 500.441 105.173 503.108 101.44C505.881 97.7067 509.081 94.5067 512.707 91.84C516.334 89.0667 520.441 86.9333 525.028 85.44C529.614 83.9467 534.468 83.2 539.588 83.2C548.228 83.2 555.961 85.2267 562.788 89.28C569.721 93.3333 575.001 98.8267 578.628 105.76C582.361 112.693 584.228 120.267 584.228 128.48ZM539.588 103.04C534.361 103.04 529.934 104.48 526.308 107.36C522.788 110.24 520.388 114.24 519.108 119.36H560.868C559.801 115.84 558.254 112.907 556.228 110.56C554.201 108.107 551.748 106.24 548.868 104.96C546.094 103.68 543.001 103.04 539.588 103.04ZM645.016 85.12H652.696V107.2H642.616C636.003 107.2 631.256 108.747 628.376 111.84C625.603 114.933 624.216 120 624.216 127.04V172H600.856V85.6H615.896L620.056 96.16C625.923 88.8 634.243 85.12 645.016 85.12ZM838.955 172H814.315L803.275 98.88L769.835 171.84H763.915L730.475 98.88L719.435 172H694.635L712.235 60H736.555L766.795 128.64L797.195 60H821.515L838.955 172ZM925.479 85.44H942.919V171.84H924.519L922.599 164.16C914.705 170.987 905.372 174.4 894.599 174.4C881.585 174.4 870.759 170.08 862.119 161.44C853.585 152.693 849.319 141.76 849.319 128.64C849.319 115.627 853.585 104.8 862.119 96.16C870.759 87.52 881.585 83.2 894.599 83.2C905.585 83.2 915.025 86.72 922.919 93.76L925.479 85.44ZM879.559 145.6C884.039 150.08 889.639 152.32 896.359 152.32C903.185 152.32 908.839 150.08 913.319 145.6C917.799 141.12 920.039 135.467 920.039 128.64C920.039 121.813 917.799 116.16 913.319 111.68C908.839 107.2 903.239 104.96 896.519 104.96C892.039 104.96 887.985 106.027 884.359 108.16C880.839 110.187 878.065 113.013 876.039 116.64C874.012 120.16 872.999 124.16 872.999 128.64C872.999 135.467 875.185 141.12 879.559 145.6ZM1012.59 83.2C1025.6 83.2 1036.37 87.52 1044.91 96.16C1053.55 104.8 1057.87 115.68 1057.87 128.8C1057.87 141.92 1053.55 152.853 1044.91 161.6C1036.27 170.24 1025.49 174.56 1012.59 174.56C1003.73 174.56 995.788 172.16 988.748 167.36V203.2H965.388V85.6H980.908L984.908 93.44C992.587 86.6133 1001.81 83.2 1012.59 83.2ZM993.708 145.76C998.188 150.24 1003.79 152.48 1010.51 152.48C1017.33 152.48 1022.99 150.24 1027.47 145.76C1031.95 141.28 1034.19 135.627 1034.19 128.8C1034.19 124.32 1033.17 120.267 1031.15 116.64C1029.12 113.013 1026.29 110.187 1022.67 108.16C1019.15 106.133 1015.15 105.12 1010.67 105.12C1006.19 105.12 1002.13 106.133 998.508 108.16C994.881 110.187 992.054 113.013 990.028 116.64C988.108 120.267 987.148 124.32 987.148 128.8C987.148 135.627 989.334 141.28 993.708 145.76ZM1105.17 174.4C1098.02 174.4 1091.68 173.12 1086.13 170.56C1080.69 168 1076.42 164.373 1073.33 159.68C1070.34 154.987 1068.85 149.6 1068.85 143.52H1091.57C1091.68 146.08 1092.32 148.267 1093.49 150.08C1094.77 151.787 1096.48 153.067 1098.61 153.92C1100.74 154.667 1103.2 155.04 1105.97 155.04C1108.21 155.04 1110.24 154.72 1112.05 154.08C1113.86 153.44 1115.36 152.48 1116.53 151.2C1117.7 149.813 1118.29 148.213 1118.29 146.4C1118.29 143.733 1116.9 141.76 1114.13 140.48C1111.36 139.2 1107.2 138.08 1101.65 137.12C1098.13 136.587 1095.2 136.053 1092.85 135.52C1090.61 134.987 1087.89 134.08 1084.69 132.8C1081.6 131.413 1079.09 129.867 1077.17 128.16C1075.36 126.453 1073.76 124.107 1072.37 121.12C1070.98 118.133 1070.29 114.667 1070.29 110.72C1070.29 102.613 1073.49 96 1079.89 90.88C1086.29 85.76 1094.66 83.2 1105.01 83.2C1115.46 83.2 1123.84 85.8667 1130.13 91.2C1136.53 96.4267 1139.73 103.36 1139.73 112H1117.49C1117.49 105.173 1113.17 101.76 1104.53 101.76C1100.9 101.76 1098.08 102.507 1096.05 104C1094.02 105.493 1093.01 107.52 1093.01 110.08C1093.01 111.147 1093.28 112.16 1093.81 113.12C1094.45 113.973 1095.14 114.667 1095.89 115.2C1096.74 115.733 1098.02 116.267 1099.73 116.8C1101.44 117.227 1102.88 117.547 1104.05 117.76C1105.22 117.973 1106.98 118.293 1109.33 118.72C1111.36 119.147 1112.8 119.467 1113.65 119.68C1114.5 119.787 1115.94 120.053 1117.97 120.48C1120 120.907 1121.49 121.333 1122.45 121.76C1123.52 122.08 1124.9 122.56 1126.61 123.2C1128.42 123.84 1129.76 124.533 1130.61 125.28C1131.57 125.92 1132.69 126.72 1133.97 127.68C1135.36 128.64 1136.42 129.707 1137.17 130.88C1137.92 132.053 1138.66 133.333 1139.41 134.72C1140.16 136.107 1140.64 137.707 1140.85 139.52C1141.17 141.333 1141.33 143.253 1141.33 145.28C1141.33 154.133 1138.02 161.227 1131.41 166.56C1124.8 171.787 1116.05 174.4 1105.17 174.4Z" fill="white"/>
</svg>
