<svg width="738" height="200" viewBox="0 0 738 200" fill="none" xmlns="http://www.w3.org/2000/svg">
<rect x="11.57" y="-3.15335" width="38" height="183" rx="19" transform="matrix(0.494206 -0.869345 0.866969 0.498362 8.58589 82.7148)" fill="black" stroke="white" stroke-width="17"/>
<rect x="3.16848" y="-11.6255" width="38" height="92.3161" rx="19" transform="matrix(-0.494207 -0.869345 0.866969 -0.498362 42.1576 158.822)" fill="black" stroke="white" stroke-width="17"/>
<mask id="path-3-inside-1_494_207" fill="white">
<path d="M99.5 0C114.688 0 127.004 12.3122 127.009 27.5L127.017 52.752L149.715 39.7051C162.882 32.136 179.642 36.7038 187.147 49.9072C194.653 63.1106 190.064 79.9495 176.896 87.5186L129.826 114.576C128.913 115.101 127.981 115.566 127.037 115.976L127.056 172.5C127.061 187.688 114.752 200 99.5645 200C84.3768 200 72.0606 187.688 72.0557 172.5L72.0088 27.5C72.0039 12.3122 84.3122 5.07889e-07 99.5 0Z"/>
</mask>
<path d="M99.5 0C114.688 0 127.004 12.3122 127.009 27.5L127.017 52.752L149.715 39.7051C162.882 32.136 179.642 36.7038 187.147 49.9072C194.653 63.1106 190.064 79.9495 176.896 87.5186L129.826 114.576C128.913 115.101 127.981 115.566 127.037 115.976L127.056 172.5C127.061 187.688 114.752 200 99.5645 200C84.3768 200 72.0606 187.688 72.0557 172.5L72.0088 27.5C72.0039 12.3122 84.3122 5.07889e-07 99.5 0Z" fill="black"/>
<path d="M99.5 0V-17V0ZM127.009 27.5L144.009 27.4947V27.4945L127.009 27.5ZM127.017 52.752L110.017 52.7572L110.026 82.1265L135.488 67.4907L127.017 52.752ZM149.715 39.7051L158.187 54.4438L158.187 54.4436L149.715 39.7051ZM187.147 49.9072L201.926 41.5059L201.926 41.5057L187.147 49.9072ZM176.896 87.5186L185.369 102.257L185.369 102.257L176.896 87.5186ZM129.826 114.576L138.298 129.315L138.298 129.315L129.826 114.576ZM127.037 115.976L120.271 100.38L110.033 104.821L110.037 115.981L127.037 115.976ZM127.056 172.5L144.056 172.494V172.494L127.056 172.5ZM99.5645 200L99.5642 217H99.5645V200ZM72.0557 172.5L55.0557 172.505V172.506L72.0557 172.5ZM72.0088 27.5L89.0088 27.4945V27.4945L72.0088 27.5ZM99.5 0V17C105.301 17 110.007 21.7043 110.009 27.5055L127.009 27.5L144.009 27.4945C144.001 2.92007 124.075 -17 99.5 -17V0ZM127.009 27.5L110.009 27.5053L110.017 52.7572L127.017 52.752L144.017 52.7467L144.009 27.4947L127.009 27.5ZM127.017 52.752L135.488 67.4907L158.187 54.4438L149.715 39.7051L141.243 24.9664L118.545 38.0133L127.017 52.752ZM149.715 39.7051L158.187 54.4436C163.187 51.5694 169.518 53.295 172.369 58.3087L187.147 49.9072L201.926 41.5057C189.765 20.1125 162.578 12.7027 141.243 24.9666L149.715 39.7051ZM187.147 49.9072L172.369 58.3086C175.25 63.3775 173.479 69.8743 168.424 72.7801L176.896 87.5186L185.369 102.257C206.648 90.0248 214.056 62.8438 201.926 41.5059L187.147 49.9072ZM176.896 87.5186L168.424 72.7801L121.354 99.8377L129.826 114.576L138.298 129.315L185.369 102.257L176.896 87.5186ZM129.826 114.576L121.354 99.8377C121.013 100.034 120.653 100.215 120.271 100.38L127.037 115.976L133.803 131.571C135.309 130.918 136.812 130.169 138.298 129.315L129.826 114.576ZM127.037 115.976L110.037 115.981L110.056 172.506L127.056 172.5L144.056 172.494L144.037 115.97L127.037 115.976ZM127.056 172.5L110.056 172.506C110.058 178.302 105.361 183 99.5645 183V200V217C124.143 217 144.064 197.073 144.056 172.494L127.056 172.5ZM99.5645 200L99.5647 183C93.7634 183 89.0575 178.295 89.0557 172.494L72.0557 172.5L55.0557 172.506C55.0636 197.08 74.9902 217 99.5642 217L99.5645 200ZM72.0557 172.5L89.0557 172.495L89.0088 27.4945L72.0088 27.5L55.0088 27.5055L55.0557 172.505L72.0557 172.5ZM72.0088 27.5L89.0088 27.4945C89.0069 21.6978 93.7031 17 99.5 17V0V-17C74.9213 -17 55.0008 2.92659 55.0088 27.5055L72.0088 27.5Z" fill="white" mask="url(#path-3-inside-1_494_207)"/>
<path d="M251.8 144V32H276.12V144H251.8ZM329.983 146.4C322.836 146.4 316.489 145.12 310.943 142.56C305.503 140 301.236 136.373 298.143 131.68C295.156 126.987 293.663 121.6 293.663 115.52H316.383C316.489 118.08 317.129 120.267 318.303 122.08C319.583 123.787 321.289 125.067 323.423 125.92C325.556 126.667 328.009 127.04 330.783 127.04C333.023 127.04 335.049 126.72 336.863 126.08C338.676 125.44 340.169 124.48 341.343 123.2C342.516 121.813 343.103 120.213 343.103 118.4C343.103 115.733 341.716 113.76 338.943 112.48C336.169 111.2 332.009 110.08 326.463 109.12C322.943 108.587 320.009 108.053 317.663 107.52C315.423 106.987 312.703 106.08 309.503 104.8C306.409 103.413 303.903 101.867 301.983 100.16C300.169 98.4533 298.569 96.1067 297.183 93.12C295.796 90.1333 295.103 86.6667 295.103 82.72C295.103 74.6133 298.303 68 304.703 62.88C311.103 57.76 319.476 55.2 329.823 55.2C340.276 55.2 348.649 57.8667 354.943 63.2C361.343 68.4267 364.543 75.36 364.543 84H342.303C342.303 77.1733 337.983 73.76 329.343 73.76C325.716 73.76 322.889 74.5067 320.863 76C318.836 77.4933 317.823 79.52 317.823 82.08C317.823 83.1467 318.089 84.16 318.623 85.12C319.263 85.9733 319.956 86.6667 320.703 87.2C321.556 87.7333 322.836 88.2667 324.543 88.8C326.249 89.2267 327.689 89.5467 328.863 89.76C330.036 89.9733 331.796 90.2933 334.143 90.72C336.169 91.1467 337.609 91.4667 338.463 91.68C339.316 91.7867 340.756 92.0533 342.783 92.48C344.809 92.9067 346.303 93.3333 347.263 93.76C348.329 94.08 349.716 94.56 351.423 95.2C353.236 95.84 354.569 96.5333 355.423 97.28C356.383 97.92 357.503 98.72 358.783 99.68C360.169 100.64 361.236 101.707 361.983 102.88C362.729 104.053 363.476 105.333 364.223 106.72C364.969 108.107 365.449 109.707 365.663 111.52C365.983 113.333 366.143 115.253 366.143 117.28C366.143 126.133 362.836 133.227 356.223 138.56C349.609 143.787 340.863 146.4 329.983 146.4ZM430.525 55.2C443.538 55.2 454.312 59.52 462.845 68.16C471.485 76.8 475.805 87.68 475.805 100.8C475.805 113.92 471.485 124.853 462.845 133.6C454.205 142.24 443.432 146.56 430.525 146.56C421.672 146.56 413.725 144.16 406.685 139.36V175.2H383.325V57.6H398.845L402.845 65.44C410.525 58.6133 419.752 55.2 430.525 55.2ZM411.645 117.76C416.125 122.24 421.725 124.48 428.445 124.48C435.272 124.48 440.925 122.24 445.405 117.76C449.885 113.28 452.125 107.627 452.125 100.8C452.125 96.32 451.112 92.2667 449.085 88.64C447.058 85.0133 444.232 82.1867 440.605 80.16C437.085 78.1333 433.085 77.12 428.605 77.12C424.125 77.12 420.072 78.1333 416.445 80.16C412.818 82.1867 409.992 85.0133 407.965 88.64C406.045 92.2667 405.085 96.32 405.085 100.8C405.085 107.627 407.272 113.28 411.645 117.76ZM576.228 100.48C576.228 102.72 576.068 105.013 575.748 107.36H510.468C511.428 113.227 513.721 117.76 517.348 120.96C521.081 124.053 525.828 125.6 531.588 125.6C535.534 125.6 539.108 124.747 542.308 123.04C545.508 121.227 548.014 118.773 549.828 115.68H574.468C571.268 125.067 565.828 132.533 558.148 138.08C550.468 143.627 541.614 146.4 531.588 146.4C518.788 146.4 508.121 142.027 499.588 133.28C491.054 124.533 486.788 113.707 486.788 100.8C486.788 95.68 487.481 90.7733 488.868 86.08C490.361 81.3867 492.441 77.1733 495.108 73.44C497.881 69.7067 501.081 66.5067 504.707 63.84C508.334 61.0667 512.441 58.9333 517.028 57.44C521.614 55.9467 526.468 55.2 531.588 55.2C540.228 55.2 547.961 57.2267 554.788 61.28C561.721 65.3333 567.001 70.8267 570.628 77.76C574.361 84.6933 576.228 92.2667 576.228 100.48ZM531.588 75.04C526.361 75.04 521.934 76.48 518.308 79.36C514.788 82.24 512.388 86.24 511.108 91.36H552.868C551.801 87.84 550.254 84.9067 548.228 82.56C546.201 80.1067 543.748 78.24 540.868 76.96C538.094 75.68 535.001 75.04 531.588 75.04ZM637.016 57.12H644.696V79.2H634.616C628.003 79.2 623.256 80.7467 620.376 83.84C617.603 86.9333 616.216 92 616.216 99.04V144H592.856V57.6H607.896L612.056 68.16C617.923 60.8 626.243 57.12 637.016 57.12Z" fill="white"/>
</svg>
